# xmcd
#
# Track frame offsets: 
#        150
#        13597
#        26317
#        37622
#        51520
#        59677
#        72132
#        82325
#        96582
#        109200
#        124862
#
# Disc length: 1833 seconds
#
# Revision: 2
# Processed by: cddbd v1.4PL0 Copyright (c) Steve Scherf et al.
# Submitted via: ExactAudioCopy v0.90b4
#
DISCID=9707270b
DTITLE=Ry Cooder - Ry Cooder
DYEAR=1900
DGENRE=Blues
TTITLE0=Alimony
TTITLE1=France Chance
TTITLE2=One Meat Ball
TTITLE3=Do Re Mi
TTITLE4=My Old Kentucky Home (Turpentine and Dandelion Wine)
TTITLE5=How Can A Poor Man Stand Such Times And Live?
TTITLE6=Available Space
TTITLE7=Pigmeat
TTITLE8=Police Dog Blues
TTITLE9=Goin' To Brownsville
TTITLE10=Dark Is The Night
EXTD=1970 Warner Brothers Records
EXTT0=
EXTT1=
EXTT2=
EXTT3=
EXTT4=
EXTT5=
EXTT6=
EXTT7=
EXTT8=
EXTT9=
EXTT10=
PLAYORDER=
